<mxfile host="app.diagrams.net" agent="Mozilla/5.0 (Macintosh; Intel Mac OS X 10_15_7) AppleWebKit/537.36 (KHTML, like Gecko) Chrome/136.0.0.0 Safari/537.36" version="27.2.0">
  <diagram name="Page-1" id="IhMQIxFYWQhUG57-XFcb">
    <mxGraphModel dx="1504" dy="1144" grid="0" gridSize="10" guides="0" tooltips="1" connect="0" arrows="0" fold="1" page="1" pageScale="1" pageWidth="1654" pageHeight="1169" math="0" shadow="0">
      <root>
        <mxCell id="0" />
        <mxCell id="1" parent="0" />
        <mxCell id="hy2QDzCqtzv86f-rD2Z0-1" value="&lt;b&gt;rm_sprint&lt;/b&gt;" style="html=1;outlineConnect=0;whiteSpace=wrap;fillColor=#d5e8d4;shape=mxgraph.archimate3.businessObject;overflow=fill;strokeColor=#82b366;" vertex="1" parent="1">
          <mxGeometry x="480" y="610" width="177" height="59" as="geometry" />
        </mxCell>
        <mxCell id="hy2QDzCqtzv86f-rD2Z0-2" value="Enterprise agile planning item sn_align_core_eap_planning_item" style="html=1;outlineConnect=0;whiteSpace=wrap;fillColor=#d5e8d4;shape=mxgraph.archimate3.businessObject;overflow=fill;strokeColor=#82b366;" vertex="1" parent="1">
          <mxGeometry x="97" y="374" width="221" height="58" as="geometry" />
        </mxCell>
        <mxCell id="hy2QDzCqtzv86f-rD2Z0-3" style="html=1;dashed=1;labelBackgroundColor=none;startArrow=none;endArrow=ERzeroToMany;fontFamily=Verdana;fontSize=12;align=left;startFill=0;endFill=0;" edge="1" parent="1" source="hy2QDzCqtzv86f-rD2Z0-5" target="hy2QDzCqtzv86f-rD2Z0-2">
          <mxGeometry relative="1" as="geometry">
            <mxPoint x="433" y="493" as="sourcePoint" />
            <mxPoint x="-94" y="434" as="targetPoint" />
          </mxGeometry>
        </mxCell>
        <mxCell id="hy2QDzCqtzv86f-rD2Z0-4" value="rm_story" style="html=1;outlineConnect=0;whiteSpace=wrap;fillColor=#d5e8d4;shape=mxgraph.archimate3.businessObject;overflow=fill;strokeColor=#82b366;" vertex="1" parent="1">
          <mxGeometry x="119" y="612" width="177" height="56" as="geometry" />
        </mxCell>
        <mxCell id="hy2QDzCqtzv86f-rD2Z0-5" value="Enterprise agile iteration &lt;b&gt;sn_apw_advanced_eap_iteration&lt;/b&gt;" style="html=1;outlineConnect=0;whiteSpace=wrap;fillColor=#d5e8d4;shape=mxgraph.archimate3.businessObject;overflow=fill;strokeColor=#82b366;" vertex="1" parent="1">
          <mxGeometry x="460" y="370" width="221" height="61" as="geometry" />
        </mxCell>
        <mxCell id="hy2QDzCqtzv86f-rD2Z0-6" value="Enterprise agile team sn_apw_advanced_eap_team" style="html=1;outlineConnect=0;whiteSpace=wrap;fillColor=#d5e8d4;shape=mxgraph.archimate3.businessObject;overflow=fill;strokeColor=#82b366;" vertex="1" parent="1">
          <mxGeometry x="465" y="150" width="211" height="63" as="geometry" />
        </mxCell>
        <mxCell id="hy2QDzCqtzv86f-rD2Z0-7" value="&lt;div&gt;Enterprise agile calendar entry&lt;/div&gt;sn_apw_advanced_eap_calendar_span" style="html=1;outlineConnect=0;whiteSpace=wrap;fillColor=#d5e8d4;shape=mxgraph.archimate3.businessObject;overflow=fill;strokeColor=#82b366;" vertex="1" parent="1">
          <mxGeometry x="705" y="260" width="238" height="55" as="geometry" />
        </mxCell>
        <mxCell id="hy2QDzCqtzv86f-rD2Z0-8" value="&lt;div&gt;Business calendar entry&lt;/div&gt;business_calendar_span" style="html=1;outlineConnect=0;whiteSpace=wrap;fillColor=#d5e8d4;shape=mxgraph.archimate3.businessObject;overflow=fill;strokeColor=#82b366;" vertex="1" parent="1">
          <mxGeometry x="1024" y="261" width="172" height="53" as="geometry" />
        </mxCell>
        <mxCell id="hy2QDzCqtzv86f-rD2Z0-9" value="" style="html=1;endArrow=block;dashed=1;elbow=vertical;endFill=1;dashPattern=6 4;rounded=0;fontSize=12;fillColor=#fff2cc;strokeColor=#d6b656;" edge="1" parent="1" source="hy2QDzCqtzv86f-rD2Z0-8" target="hy2QDzCqtzv86f-rD2Z0-7">
          <mxGeometry width="160" relative="1" as="geometry">
            <mxPoint x="576" y="348" as="sourcePoint" />
            <mxPoint x="485" y="348" as="targetPoint" />
          </mxGeometry>
        </mxCell>
        <mxCell id="hy2QDzCqtzv86f-rD2Z0-10" value="Extends" style="edgeLabel;html=1;align=center;verticalAlign=middle;resizable=0;points=[];" vertex="1" connectable="0" parent="hy2QDzCqtzv86f-rD2Z0-9">
          <mxGeometry x="0.0817" y="-2" relative="1" as="geometry">
            <mxPoint as="offset" />
          </mxGeometry>
        </mxCell>
        <mxCell id="hy2QDzCqtzv86f-rD2Z0-11" style="html=1;dashed=1;labelBackgroundColor=none;startArrow=none;endArrow=ERzeroToMany;fontFamily=Verdana;fontSize=12;align=left;startFill=0;endFill=0;" edge="1" parent="1" source="hy2QDzCqtzv86f-rD2Z0-7" target="hy2QDzCqtzv86f-rD2Z0-5">
          <mxGeometry relative="1" as="geometry">
            <mxPoint x="535" y="575" as="sourcePoint" />
            <mxPoint x="384" y="675" as="targetPoint" />
          </mxGeometry>
        </mxCell>
        <mxCell id="hy2QDzCqtzv86f-rD2Z0-12" style="html=1;dashed=1;labelBackgroundColor=none;startArrow=none;endArrow=ERzeroToMany;fontFamily=Verdana;fontSize=12;align=left;startFill=0;endFill=0;" edge="1" parent="1" source="hy2QDzCqtzv86f-rD2Z0-5" target="hy2QDzCqtzv86f-rD2Z0-4">
          <mxGeometry relative="1" as="geometry">
            <mxPoint x="803" y="753" as="sourcePoint" />
            <mxPoint x="635" y="801" as="targetPoint" />
          </mxGeometry>
        </mxCell>
        <mxCell id="hy2QDzCqtzv86f-rD2Z0-13" style="html=1;dashed=1;labelBackgroundColor=none;startArrow=none;endArrow=ERzeroToMany;fontFamily=Verdana;fontSize=12;align=left;startFill=0;endFill=0;" edge="1" parent="1" source="hy2QDzCqtzv86f-rD2Z0-5" target="hy2QDzCqtzv86f-rD2Z0-1">
          <mxGeometry relative="1" as="geometry">
            <mxPoint x="732" y="606" as="sourcePoint" />
            <mxPoint x="564" y="654" as="targetPoint" />
          </mxGeometry>
        </mxCell>
        <mxCell id="hy2QDzCqtzv86f-rD2Z0-14" style="html=1;dashed=1;labelBackgroundColor=none;startArrow=none;endArrow=ERzeroToMany;fontFamily=Verdana;fontSize=12;align=left;startFill=0;endFill=0;" edge="1" parent="1" source="hy2QDzCqtzv86f-rD2Z0-6" target="hy2QDzCqtzv86f-rD2Z0-5">
          <mxGeometry relative="1" as="geometry">
            <mxPoint x="1018" y="522" as="sourcePoint" />
            <mxPoint x="850" y="570" as="targetPoint" />
          </mxGeometry>
        </mxCell>
        <mxCell id="hy2QDzCqtzv86f-rD2Z0-15" style="html=1;dashed=1;labelBackgroundColor=none;startArrow=none;endArrow=ERzeroToMany;fontFamily=Verdana;fontSize=12;align=left;startFill=0;endFill=0;" edge="1" parent="1" source="hy2QDzCqtzv86f-rD2Z0-2" target="hy2QDzCqtzv86f-rD2Z0-4">
          <mxGeometry relative="1" as="geometry">
            <mxPoint x="866" y="607" as="sourcePoint" />
            <mxPoint x="866" y="663" as="targetPoint" />
          </mxGeometry>
        </mxCell>
        <mxCell id="hy2QDzCqtzv86f-rD2Z0-16" style="html=1;dashed=1;labelBackgroundColor=none;startArrow=none;endArrow=ERzeroToMany;fontFamily=Verdana;fontSize=12;align=left;startFill=0;endFill=0;" edge="1" parent="1" source="hy2QDzCqtzv86f-rD2Z0-1" target="hy2QDzCqtzv86f-rD2Z0-4">
          <mxGeometry relative="1" as="geometry">
            <mxPoint x="488" y="419" as="sourcePoint" />
            <mxPoint x="325" y="421" as="targetPoint" />
          </mxGeometry>
        </mxCell>
        <mxCell id="hy2QDzCqtzv86f-rD2Z0-17" value="rm_epic" style="html=1;outlineConnect=0;whiteSpace=wrap;fillColor=#d5e8d4;shape=mxgraph.archimate3.businessObject;overflow=fill;strokeColor=#82b366;" vertex="1" parent="1">
          <mxGeometry x="119" y="741" width="177" height="51" as="geometry" />
        </mxCell>
        <mxCell id="hy2QDzCqtzv86f-rD2Z0-18" style="html=1;dashed=1;labelBackgroundColor=none;startArrow=none;endArrow=ERzeroToMany;fontFamily=Verdana;fontSize=12;align=left;startFill=0;endFill=0;" edge="1" parent="1" source="hy2QDzCqtzv86f-rD2Z0-17" target="hy2QDzCqtzv86f-rD2Z0-4">
          <mxGeometry relative="1" as="geometry">
            <mxPoint x="550" y="572" as="sourcePoint" />
            <mxPoint x="387" y="574" as="targetPoint" />
          </mxGeometry>
        </mxCell>
        <mxCell id="hy2QDzCqtzv86f-rD2Z0-19" style="html=1;dashed=1;labelBackgroundColor=none;startArrow=none;endArrow=ERzeroToMany;fontFamily=Verdana;fontSize=12;align=left;startFill=0;endFill=0;" edge="1" parent="1" source="hy2QDzCqtzv86f-rD2Z0-6" target="hy2QDzCqtzv86f-rD2Z0-4">
          <mxGeometry relative="1" as="geometry">
            <mxPoint x="533" y="499" as="sourcePoint" />
            <mxPoint x="369" y="570" as="targetPoint" />
          </mxGeometry>
        </mxCell>
        <mxCell id="hy2QDzCqtzv86f-rD2Z0-20" style="html=1;dashed=1;labelBackgroundColor=none;startArrow=none;endArrow=ERzeroToMany;fontFamily=Verdana;fontSize=12;align=left;startFill=0;endFill=0;" edge="1" parent="1" source="hy2QDzCqtzv86f-rD2Z0-6" target="hy2QDzCqtzv86f-rD2Z0-2">
          <mxGeometry relative="1" as="geometry">
            <mxPoint x="720" y="599" as="sourcePoint" />
            <mxPoint x="883" y="798" as="targetPoint" />
          </mxGeometry>
        </mxCell>
        <mxCell id="hy2QDzCqtzv86f-rD2Z0-21" value="&lt;div&gt;new: Business Rule&lt;/div&gt;&lt;div&gt;after: insert&lt;/div&gt;&lt;div&gt;set: &lt;b&gt;iteration&lt;/b&gt;&lt;br&gt;&lt;/div&gt;" style="html=1;outlineConnect=0;whiteSpace=wrap;fillColor=#f8cecc;shape=mxgraph.archimate3.application;appType=comp;archiType=square;strokeColor=#b85450;verticalAlign=top;" vertex="1" parent="1">
          <mxGeometry x="711" y="465" width="151" height="61" as="geometry" />
        </mxCell>
        <mxCell id="hy2QDzCqtzv86f-rD2Z0-22" value="" style="html=1;endArrow=open;elbow=vertical;endFill=0;dashed=1;dashPattern=1 4;rounded=0;" edge="1" parent="1" source="hy2QDzCqtzv86f-rD2Z0-21" target="hy2QDzCqtzv86f-rD2Z0-1">
          <mxGeometry width="160" relative="1" as="geometry">
            <mxPoint x="894" y="855" as="sourcePoint" />
            <mxPoint x="1110" y="793" as="targetPoint" />
          </mxGeometry>
        </mxCell>
        <mxCell id="hy2QDzCqtzv86f-rD2Z0-24" value="Jira" style="swimlane;" vertex="1" parent="1">
          <mxGeometry x="1081" y="539" width="270" height="436" as="geometry" />
        </mxCell>
        <mxCell id="hy2QDzCqtzv86f-rD2Z0-25" value="" style="html=1;outlineConnect=0;whiteSpace=wrap;fillColor=#dae8fc;shape=mxgraph.archimate3.application;appType=product;archiType=rounded;strokeColor=#6c8ebf;verticalAlign=top;fontStyle=0" vertex="1" parent="hy2QDzCqtzv86f-rD2Z0-24">
          <mxGeometry x="26" y="49" width="214" height="327" as="geometry" />
        </mxCell>
        <mxCell id="hy2QDzCqtzv86f-rD2Z0-26" value="Board" style="html=1;outlineConnect=0;whiteSpace=wrap;fillColor=#dae8fc;shape=mxgraph.archimate3.businessObject;overflow=fill;strokeColor=#6c8ebf;" vertex="1" parent="hy2QDzCqtzv86f-rD2Z0-24">
          <mxGeometry x="46" y="293" width="177" height="50" as="geometry" />
        </mxCell>
        <mxCell id="hy2QDzCqtzv86f-rD2Z0-27" value="Sprint" style="html=1;outlineConnect=0;whiteSpace=wrap;fillColor=#dae8fc;shape=mxgraph.archimate3.businessObject;overflow=fill;strokeColor=#6c8ebf;" vertex="1" parent="hy2QDzCqtzv86f-rD2Z0-24">
          <mxGeometry x="43" y="78" width="177" height="50" as="geometry" />
        </mxCell>
        <mxCell id="hy2QDzCqtzv86f-rD2Z0-51" value="Epic" style="html=1;outlineConnect=0;whiteSpace=wrap;fillColor=#dae8fc;shape=mxgraph.archimate3.businessObject;overflow=fill;strokeColor=#6c8ebf;" vertex="1" parent="hy2QDzCqtzv86f-rD2Z0-24">
          <mxGeometry x="48" y="207" width="177" height="50" as="geometry" />
        </mxCell>
        <mxCell id="hy2QDzCqtzv86f-rD2Z0-28" value="Agile team sn_apw_advanced_agile_team" style="html=1;outlineConnect=0;whiteSpace=wrap;fillColor=#d5e8d4;shape=mxgraph.archimate3.businessObject;overflow=fill;strokeColor=#82b366;" vertex="1" parent="1">
          <mxGeometry x="160" y="150" width="211" height="64" as="geometry" />
        </mxCell>
        <mxCell id="hy2QDzCqtzv86f-rD2Z0-29" value="" style="html=1;endArrow=block;dashed=1;elbow=vertical;endFill=1;dashPattern=6 4;rounded=0;fontSize=12;fillColor=#fff2cc;strokeColor=#d6b656;" edge="1" parent="1" source="hy2QDzCqtzv86f-rD2Z0-6" target="hy2QDzCqtzv86f-rD2Z0-28">
          <mxGeometry width="160" relative="1" as="geometry">
            <mxPoint x="1093" y="295" as="sourcePoint" />
            <mxPoint x="1012" y="294" as="targetPoint" />
          </mxGeometry>
        </mxCell>
        <mxCell id="hy2QDzCqtzv86f-rD2Z0-30" value="Extends" style="edgeLabel;html=1;align=center;verticalAlign=middle;resizable=0;points=[];" vertex="1" connectable="0" parent="hy2QDzCqtzv86f-rD2Z0-29">
          <mxGeometry x="0.0817" y="-2" relative="1" as="geometry">
            <mxPoint as="offset" />
          </mxGeometry>
        </mxCell>
        <mxCell id="hy2QDzCqtzv86f-rD2Z0-31" value="User Group&lt;div&gt;sys_user_group&lt;/div&gt;" style="html=1;outlineConnect=0;whiteSpace=wrap;fillColor=#d5e8d4;shape=mxgraph.archimate3.businessObject;overflow=fill;strokeColor=#82b366;" vertex="1" parent="1">
          <mxGeometry x="163" y="49" width="211" height="45" as="geometry" />
        </mxCell>
        <mxCell id="hy2QDzCqtzv86f-rD2Z0-32" style="html=1;dashed=1;labelBackgroundColor=none;startArrow=none;endArrow=ERzeroToMany;fontFamily=Verdana;fontSize=12;align=left;startFill=0;endFill=0;" edge="1" parent="1" source="hy2QDzCqtzv86f-rD2Z0-31" target="hy2QDzCqtzv86f-rD2Z0-28">
          <mxGeometry relative="1" as="geometry">
            <mxPoint x="564" y="313" as="sourcePoint" />
            <mxPoint x="363" y="435" as="targetPoint" />
          </mxGeometry>
        </mxCell>
        <mxCell id="hy2QDzCqtzv86f-rD2Z0-33" style="html=1;dashed=1;labelBackgroundColor=none;startArrow=none;endArrow=ERzeroToMany;fontFamily=Verdana;fontSize=12;align=left;startFill=0;endFill=0;" edge="1" parent="1" source="hy2QDzCqtzv86f-rD2Z0-6" target="hy2QDzCqtzv86f-rD2Z0-28">
          <mxGeometry relative="1" as="geometry">
            <mxPoint x="601" y="295" as="sourcePoint" />
            <mxPoint x="400" y="417" as="targetPoint" />
            <Array as="points">
              <mxPoint x="422" y="118" />
            </Array>
          </mxGeometry>
        </mxCell>
        <mxCell id="hy2QDzCqtzv86f-rD2Z0-34" style="html=1;dashed=1;labelBackgroundColor=none;startArrow=none;endArrow=ERzeroToMany;fontFamily=Verdana;fontSize=12;align=left;startFill=0;endFill=0;" edge="1" parent="1" source="hy2QDzCqtzv86f-rD2Z0-6" target="hy2QDzCqtzv86f-rD2Z0-6">
          <mxGeometry relative="1" as="geometry">
            <mxPoint x="775" y="95" as="sourcePoint" />
            <mxPoint x="574" y="217" as="targetPoint" />
            <Array as="points">
              <mxPoint x="612" y="119" />
            </Array>
          </mxGeometry>
        </mxCell>
        <mxCell id="hy2QDzCqtzv86f-rD2Z0-35" value="Parent" style="edgeLabel;html=1;align=center;verticalAlign=middle;resizable=0;points=[];" vertex="1" connectable="0" parent="hy2QDzCqtzv86f-rD2Z0-34">
          <mxGeometry x="0.1374" y="1" relative="1" as="geometry">
            <mxPoint as="offset" />
          </mxGeometry>
        </mxCell>
        <mxCell id="hy2QDzCqtzv86f-rD2Z0-38" value="&lt;div&gt;&lt;br&gt;&lt;/div&gt;&lt;div&gt;&lt;b&gt;Sprint webhook:&lt;/b&gt;&lt;/div&gt;&lt;div&gt;sprint.id =&amp;nbsp;&lt;span style=&quot;background-color: transparent; color: light-dark(rgb(102, 102, 102), rgb(149, 149, 149));&quot;&gt;69&lt;/span&gt;&lt;/div&gt;&lt;div&gt;name =&amp;nbsp;&lt;span style=&quot;background-color: transparent; color: light-dark(rgb(102, 102, 102), rgb(149, 149, 149));&quot;&gt;ITP Sprint 4&lt;/span&gt;&lt;/div&gt;&lt;div&gt;state =&amp;nbsp;&lt;span style=&quot;background-color: transparent; color: light-dark(rgb(102, 102, 102), rgb(149, 149, 149));&quot;&gt;future&lt;/span&gt;&lt;/div&gt;&lt;div&gt;&lt;span style=&quot;background-color: transparent;&quot;&gt;&lt;font style=&quot;color: rgb(234, 107, 102);&quot;&gt;originBoardId = 7&lt;/font&gt;&lt;/span&gt;&lt;/div&gt;" style="strokeWidth=1;shadow=0;dashed=0;align=left;html=1;shape=mxgraph.mockup.text.stickyNote2;fontColor=#666666;mainText=;fontSize=15;whiteSpace=wrap;fillColor=#ffffcc;strokeColor=#F62E00;" vertex="1" parent="1">
          <mxGeometry x="885" y="529" width="160" height="110" as="geometry" />
        </mxCell>
        <mxCell id="hy2QDzCqtzv86f-rD2Z0-39" value="" style="edgeStyle=elbowEdgeStyle;html=1;endArrow=block;dashed=0;elbow=vertical;endFill=1;rounded=0;" edge="1" parent="1" source="hy2QDzCqtzv86f-rD2Z0-27" target="hy2QDzCqtzv86f-rD2Z0-1">
          <mxGeometry width="160" relative="1" as="geometry">
            <mxPoint x="637" y="722" as="sourcePoint" />
            <mxPoint x="797" y="722" as="targetPoint" />
          </mxGeometry>
        </mxCell>
        <mxCell id="hy2QDzCqtzv86f-rD2Z0-40" value="Board&lt;div&gt;sn_jira_int_board&lt;/div&gt;" style="html=1;outlineConnect=0;whiteSpace=wrap;fillColor=#d5e8d4;shape=mxgraph.archimate3.businessObject;overflow=fill;strokeColor=#82b366;" vertex="1" parent="1">
          <mxGeometry x="580" y="838" width="177" height="52" as="geometry" />
        </mxCell>
        <mxCell id="hy2QDzCqtzv86f-rD2Z0-41" value="" style="edgeStyle=elbowEdgeStyle;html=1;endArrow=block;dashed=0;elbow=vertical;endFill=1;rounded=0;" edge="1" parent="1" source="hy2QDzCqtzv86f-rD2Z0-26" target="hy2QDzCqtzv86f-rD2Z0-40">
          <mxGeometry width="160" relative="1" as="geometry">
            <mxPoint x="1304" y="635" as="sourcePoint" />
            <mxPoint x="837" y="635" as="targetPoint" />
          </mxGeometry>
        </mxCell>
        <mxCell id="hy2QDzCqtzv86f-rD2Z0-42" value="&lt;div&gt;&lt;br&gt;&lt;/div&gt;&lt;div&gt;&lt;b&gt;Board webhook:&lt;/b&gt;&lt;/div&gt;&lt;div&gt;&lt;div&gt;id = 7&lt;/div&gt;&lt;div&gt;name = ITP board&lt;/div&gt;&lt;div&gt;type = scrum&lt;/div&gt;&lt;div&gt;projectKey = ITP&lt;/div&gt;&lt;div&gt;displayName = IGPM - Test project (ITP)&lt;/div&gt;&lt;div&gt;isPrivate = false&lt;/div&gt;&lt;/div&gt;" style="strokeWidth=1;shadow=0;dashed=0;align=left;html=1;shape=mxgraph.mockup.text.stickyNote2;fontColor=#666666;mainText=;fontSize=15;whiteSpace=wrap;fillColor=#ffffcc;strokeColor=#F62E00;" vertex="1" parent="1">
          <mxGeometry x="788" y="862" width="276" height="173" as="geometry" />
        </mxCell>
        <mxCell id="hy2QDzCqtzv86f-rD2Z0-43" value="" style="endArrow=classic;startArrow=classic;html=1;rounded=0;fillColor=#d5e8d4;strokeColor=#82b366;strokeWidth=2;fontSize=13;" edge="1" parent="1" source="hy2QDzCqtzv86f-rD2Z0-1" target="hy2QDzCqtzv86f-rD2Z0-5">
          <mxGeometry width="50" height="50" relative="1" as="geometry">
            <mxPoint x="692" y="589" as="sourcePoint" />
            <mxPoint x="742" y="539" as="targetPoint" />
            <Array as="points">
              <mxPoint x="627" y="535" />
            </Array>
          </mxGeometry>
        </mxCell>
        <mxCell id="hy2QDzCqtzv86f-rD2Z0-44" value="BR sync" style="edgeLabel;html=1;align=center;verticalAlign=middle;resizable=0;points=[];fontSize=13;fontStyle=1" vertex="1" connectable="0" parent="hy2QDzCqtzv86f-rD2Z0-43">
          <mxGeometry x="0.3278" y="-1" relative="1" as="geometry">
            <mxPoint as="offset" />
          </mxGeometry>
        </mxCell>
        <mxCell id="hy2QDzCqtzv86f-rD2Z0-45" value="Jira Project&lt;div&gt;sn_jira_int_project&lt;/div&gt;" style="html=1;outlineConnect=0;whiteSpace=wrap;fillColor=#d5e8d4;shape=mxgraph.archimate3.businessObject;overflow=fill;strokeColor=#82b366;" vertex="1" parent="1">
          <mxGeometry x="350" y="840" width="177" height="52" as="geometry" />
        </mxCell>
        <mxCell id="hy2QDzCqtzv86f-rD2Z0-46" value="Team Integration Settings&lt;br&gt;&lt;div&gt;sn_agile_jira_int_import_settings&lt;/div&gt;" style="html=1;outlineConnect=0;whiteSpace=wrap;fillColor=#d5e8d4;shape=mxgraph.archimate3.businessObject;overflow=fill;strokeColor=#82b366;" vertex="1" parent="1">
          <mxGeometry x="346" y="919" width="186" height="52" as="geometry" />
        </mxCell>
        <mxCell id="hy2QDzCqtzv86f-rD2Z0-47" style="html=1;dashed=1;labelBackgroundColor=none;startArrow=none;endArrow=ERzeroToMany;fontFamily=Verdana;fontSize=12;align=left;startFill=0;endFill=0;" edge="1" parent="1" source="hy2QDzCqtzv86f-rD2Z0-40" target="hy2QDzCqtzv86f-rD2Z0-46">
          <mxGeometry relative="1" as="geometry">
            <mxPoint x="515" y="638" as="sourcePoint" />
            <mxPoint x="331" y="638" as="targetPoint" />
          </mxGeometry>
        </mxCell>
        <mxCell id="hy2QDzCqtzv86f-rD2Z0-48" style="html=1;dashed=1;labelBackgroundColor=none;startArrow=none;endArrow=ERzeroToMany;fontFamily=Verdana;fontSize=12;align=left;startFill=0;endFill=0;" edge="1" parent="1" source="hy2QDzCqtzv86f-rD2Z0-45" target="hy2QDzCqtzv86f-rD2Z0-46">
          <mxGeometry relative="1" as="geometry">
            <mxPoint x="635" y="790" as="sourcePoint" />
            <mxPoint x="451" y="790" as="targetPoint" />
          </mxGeometry>
        </mxCell>
        <mxCell id="hy2QDzCqtzv86f-rD2Z0-49" value="User Group&lt;div&gt;sys_user_group&lt;/div&gt;" style="html=1;outlineConnect=0;whiteSpace=wrap;fillColor=#d5e8d4;shape=mxgraph.archimate3.businessObject;overflow=fill;strokeColor=#82b366;" vertex="1" parent="1">
          <mxGeometry x="136" y="839" width="148" height="52" as="geometry" />
        </mxCell>
        <mxCell id="hy2QDzCqtzv86f-rD2Z0-50" style="html=1;dashed=1;labelBackgroundColor=none;startArrow=none;endArrow=ERzeroToMany;fontFamily=Verdana;fontSize=12;align=left;startFill=0;endFill=0;" edge="1" parent="1" source="hy2QDzCqtzv86f-rD2Z0-49" target="hy2QDzCqtzv86f-rD2Z0-46">
          <mxGeometry relative="1" as="geometry">
            <mxPoint x="297" y="985" as="sourcePoint" />
            <mxPoint x="354" y="1032" as="targetPoint" />
          </mxGeometry>
        </mxCell>
        <mxCell id="hy2QDzCqtzv86f-rD2Z0-52" value="" style="edgeStyle=elbowEdgeStyle;html=1;endArrow=block;dashed=0;elbow=vertical;endFill=1;rounded=0;" edge="1" parent="1" source="hy2QDzCqtzv86f-rD2Z0-17" target="hy2QDzCqtzv86f-rD2Z0-51">
          <mxGeometry width="160" relative="1" as="geometry">
            <mxPoint x="1212" y="637" as="sourcePoint" />
            <mxPoint x="745" y="637" as="targetPoint" />
          </mxGeometry>
        </mxCell>
        <mxCell id="hy2QDzCqtzv86f-rD2Z0-53" value="m2m" style="html=1;outlineConnect=0;whiteSpace=wrap;fillColor=#f8cecc;shape=mxgraph.archimate3.businessObject;overflow=fill;strokeColor=#b85450;" vertex="1" parent="1">
          <mxGeometry x="366" y="1001" width="148" height="52" as="geometry" />
        </mxCell>
        <mxCell id="hy2QDzCqtzv86f-rD2Z0-54" style="html=1;dashed=1;labelBackgroundColor=none;startArrow=none;endArrow=ERzeroToMany;fontFamily=Verdana;fontSize=12;align=left;startFill=0;endFill=0;edgeStyle=elbowEdgeStyle;" edge="1" parent="1" source="hy2QDzCqtzv86f-rD2Z0-49" target="hy2QDzCqtzv86f-rD2Z0-53">
          <mxGeometry relative="1" as="geometry">
            <mxPoint x="345" y="916" as="sourcePoint" />
            <mxPoint x="451" y="961" as="targetPoint" />
            <Array as="points">
              <mxPoint x="218" y="961" />
            </Array>
          </mxGeometry>
        </mxCell>
        <mxCell id="hy2QDzCqtzv86f-rD2Z0-55" style="html=1;dashed=1;labelBackgroundColor=none;startArrow=none;endArrow=ERzeroToMany;fontFamily=Verdana;fontSize=12;align=left;startFill=0;endFill=0;edgeStyle=elbowEdgeStyle;" edge="1" parent="1" source="hy2QDzCqtzv86f-rD2Z0-40" target="hy2QDzCqtzv86f-rD2Z0-53">
          <mxGeometry relative="1" as="geometry">
            <mxPoint x="211" y="911" as="sourcePoint" />
            <mxPoint x="182" y="974" as="targetPoint" />
            <Array as="points">
              <mxPoint x="671" y="961" />
            </Array>
          </mxGeometry>
        </mxCell>
      </root>
    </mxGraphModel>
  </diagram>
</mxfile>
